# xmcd CD database file
# Copyright (C) 1993-1998 Ti Kan
#
# Track frame offsets:
#	150
#	11115
#	24230
#	39137
#	50662
#	61135
#	76095
#	88085
#	99297
#	111327
#	122612
#	135732
#	148262
#	161160
#	173400
#	184082
#
# Disc length: 2588 seconds
#
# Revision: 2
# Processed by: cddbd v1.4b41PL1 Copyright (c) Steve Scherf et al.
# Submitted via: CDmax 1.5
#
DISCID=c90a1a10
DTITLE=Elmore James - Dust My Broom
DYEAR=1900
DGENRE=
TTITLE0=Coming Home
TTITLE1=Dust My Broom
TTITLE2=Everyday I Have the Blues
TTITLE3=Fine Little Mama
TTITLE4=I Done Somebody Wrong
TTITLE5=It Hurts Me Too
TTITLE6=Pickin' The Blues
TTITLE7=Look on Yonder Wall
TTITLE8=Mean Mistreating Mama
TTITLE9=Rollin' and Tumblin'
TTITLE10=Standing at the Crossroads
TTITLE11=The Sky Is Crying
TTITLE12=Anna Lee
TTITLE13=Got To Move
TTITLE14=One Way Out
TTITLE15=Sunnyland Train
EXTD=
EXTT0=
EXTT1=
EXTT2=
EXTT3=
EXTT4=
EXTT5=
EXTT6=
EXTT7=
EXTT8=
EXTT9=
EXTT10=
EXTT11=
EXTT12=
EXTT13=
EXTT14=
EXTT15=
PLAYORDER=
